# xmcd CD database file
#
# Track frame offsets:
#	150
#	12174
#	25172
#	38940
#	52706
#	66110
#	80865
#	94352
#	106579
#	119961
#	134011
#	148446
#	162388
#	175202
#	188096
#	200284
#	214228
#	228065
#	240694
#	254310
#
# Disc length: 3556 seconds
#
# Revision: 0
# Processed by: cddbd v1.4PL0 Copyright (c) Steve Scherf et al.
# Submitted via: CDex 1.50
#
DISCID=220de214
DTITLE=John Lee Williamson - Broken Heart Blues
DYEAR=1900
DGENRE=Blues
TTITLE0=She Was A Dreamer
TTITLE1=Decoration Day Blues No. 2
TTITLE2=Western Union Man
TTITLE3=Springtime Blues
TTITLE4=War Time Blues
TTITLE5=Sloppy Drunk Blues
TTITLE6=Shotgun Blues
TTITLE7=New Early In The Morning
TTITLE8=You Got To Step Back
TTITLE9=Drink On Little Girl
TTITLE10=My Baby Made A Change
TTITLE11=Million Years Blues
TTITLE12=I Been Dealing With The Devil
TTITLE13=Broken Heart Blues
TTITLE14=She Don't Leave Me That Way
TTITLE15=Cool And Iceman Blues
TTITLE16=Springtime Blues
TTITLE17=I'm Gonna Catch You Soon
TTITLE18=Blues That Made Me Drunk
TTITLE19=Come On Baby And Take A Walk
EXTD=
EXTT0=
EXTT1=
EXTT2=
EXTT3=
EXTT4=
EXTT5=
EXTT6=
EXTT7=
EXTT8=
EXTT9=
EXTT10=
EXTT11=
EXTT12=
EXTT13=
EXTT14=
EXTT15=
EXTT16=
EXTT17=
EXTT18=
EXTT19=
PLAYORDER=
